{"title":"Bellator 142 Dynamite 1 Prelims 720p WEB-DL x264 -={SPARROW}=-","uid":12456188,"size":3201797178,"categoryP":"video","categoryS":"hd___tv_shows","magnet":"?xt=urn:btih:8f593889e58e5b066802e78a1cc544857315f06a&amp;dn=Bellator+142+Dynamite+1+Prelims+720p+WEB-DL+x264+-%3D%7BSPARROW%7D%3D-&amp;tr=udp%3A%2F%2Ftracker.openbittorrent.com%3A80&amp;tr=udp%3A%2F%2Fopen.demonii.com%3A1337&amp;tr=udp%3A%2F%2Ftracker.coppersurfer.tk%3A6969&amp;tr=udp%3A%2F%2Fexodus.desync.com%3A6969","seeders":59,"leechers":16,"uploader":"CenaCme","files":2,"time":1442708918,"description":"MMA Anthony Ruiz vs Francis Carmont (Reserve Bout)\nMMA Mike Malott vs Thomas Diagne\nGLORY TJ Arcangel vs Jose Palacios\nGLORY Anvar Boynazarov vs Serhiy Adamchuk\nMMA Salvador Becerra vs Adam Piccolotti\nMMA Joe Neal vs Gabriel Carrasco\n\nGeneral\nComplete name                            : Bellator.142.Dynamite.1.Prelims.720p.WEB-DL.x264.mp4\nFormat                                   : MPEG-4\nFormat profile                           : Base Media\nCodec ID                                 : isom\nFile size                                : 2.98 GiB\nDuration                                 : 2h 5mn\nOverall bit rate mode                    : Variable\nOverall bit rate                         : 3 408 Kbps\nWriting application                      : Lavf56.34.100\n\nVideo\nID                                       : 1\nFormat                                   : AVC\nFormat/Info                              : Advanced Video Codec\nFormat profile                           : &lt;a class=&quot;__cf_email__&quot; href=&quot;/cdn-cgi/l/email-protection&quot; data-cfemail=&quot;632b0a040b232f574d53&quot;&gt;[email&amp;#160;protected]&lt;/a&gt;&lt;script data-cfhash='f9e31' type=&quot;text/javascript&quot;&gt;\n/* &lt;![CDATA[ */!function(){try{var t=&quot;currentScript&quot;in document?document.currentScript:function(){for(var t=document.getElementsByTagName(&quot;script&quot;),e=t.length;e--;)if(t[e].getAttribute(&quot;data-cfhash&quot;))return t[e]}();if(t&amp;&amp;t.previousSibling){var e,r,n,i,c=t.previousSibling,a=c.getAttribute(&quot;data-cfemail&quot;);if(a){for(e=&quot;&quot;,r=parseInt(a.substr(0,2),16),n=2;a.length-n;n+=2)i=parseInt(a.substr(n,2),16)^r,e+=String.fromCharCode(i);e=document.createTextNode(e),c.parentNode.replaceChild(e,c)}t.parentNode.removeChild(t);}}catch(u){}}()/* ]]&gt; */&lt;/script&gt;\nFormat settings, CABAC                   : Yes\nFormat settings, ReFrames                : 4 frames\nFormat settings, GOP                     : M=4, N=90\nCodec ID                                 : avc1\nCodec ID/Info                            : Advanced Video Coding\nDuration                                 : 2h 5mn\nBit rate mode                            : Constant\nBit rate                                 : 3 404 Kbps\nWidth                                    : 1 280 pixels\nHeight                                   : 720 pixels\nDisplay aspect ratio                     : 16:9\nFrame rate mode                          : Variable\nFrame rate                               : 29.717 fps\nOriginal frame rate                      : 29.970 fps\nMinimum frame rate                       : 0.016 fps\nMaximum frame rate                       : 30.303 fps\nStandard                                 : NTSC\nColor space                              : YUV\nChroma subsampling                       : 4:2:0\nBit depth                                : 8 bits\nScan type                                : Progressive\nBits/(Pixel*Frame)                       : 0.124\nStream size                              : 2.94 GiB (98%)\nColor primaries                          : BT.709\nTransfer characteristics                 : BT.709\nMatrix coefficients                      : BT.709\n\nAudio\nID                                       : 2\nFormat                                   : AAC\nFormat/Info                              : Advanced Audio Codec\nFormat profile                           : HE-AAC / LC\nCodec ID                                 : 40\nDuration                                 : 2h 5mn\nBit rate mode                            : Variable\nBit rate                                 : 48.0 Kbps\nMaximum bit rate                         : 46.8 Kbps\nChannel(s)                               : 2 channels\nChannel positions                        : Front: L R\nSampling rate                            : 48.0 KHz / 24.0 KHz\nCompression mode                         : Lossy\nStream size                              : 41.6 MiB (1%)\n\n\nScreens:\n &lt;a href=&quot;\nhttp://imgsparrow.co/image/8Ys&quot; rel=&quot;nofollow&quot; target=&quot;_NEW&quot;&gt;\nhttp://imgsparrow.co/image/8Ys&lt;/a&gt;","torrent":{"xt":"urn:btih:8f593889e58e5b066802e78a1cc544857315f06a","amp;dn":"Bellator+142+Dynamite+1+Prelims+720p+WEB-DL+x264+-%3D%7BSPARROW%7D%3D-","amp;tr":["udp%3A%2F%2Ftracker.openbittorrent.com%3A80","udp%3A%2F%2Fopen.demonii.com%3A1337","udp%3A%2F%2Ftracker.coppersurfer.tk%3A6969","udp%3A%2F%2Fexodus.desync.com%3A6969"],"infoHash":"8f593889e58e5b066802e78a1cc544857315f06a","infoHashBuffer":{"type":"Buffer","data":[143,89,56,137,229,142,91,6,104,2,231,138,28,197,68,133,115,21,240,106]},"announce":[],"urlList":[]}}